<svg width="42" height="42" viewBox="0 0 42 42" fill="none" xmlns="http://www.w3.org/2000/svg">
<path d="M35.6533 0H5.53901C2.4799 0 0 2.4799 0 5.53901V35.6533C0 38.7124 2.4799 41.1923 5.53901 41.1923H35.6533C38.7124 41.1923 41.1923 38.7124 41.1923 35.6533V5.53901C41.1923 2.4799 38.7124 0 35.6533 0Z" fill="#141414"/>
<path d="M30.7207 13.3496H24.5342V15.1053H30.7207V13.3496Z" fill="white"/>
<path d="M18.8615 19.4967C21.0899 19.092 20.86 16.4988 20.86 16.4988C20.6742 12.9704 17.2806 12.9204 17.2806 12.9204H8.97461V27.7098H17.0508C21.4696 27.5679 21.4276 23.5228 21.4276 23.5228C21.5955 19.8484 18.8615 19.4967 18.8615 19.4967ZM12.4591 15.4916H16.1145C16.5047 15.4875 16.8862 15.6067 17.2047 15.8323C17.8732 16.323 17.8042 17.1903 17.8042 17.1903C17.8042 17.2053 17.8042 17.2203 17.8042 17.2363C17.8042 18.1636 16.9838 18.8891 15.9995 18.8891H12.4591V15.4916ZM18.2349 23.1221C18.2342 23.3762 18.1829 23.6277 18.0842 23.8619C17.9854 24.0961 17.8411 24.3083 17.6596 24.4863C17.4781 24.6642 17.2631 24.8043 17.027 24.8985C16.7909 24.9926 16.5385 25.0389 16.2843 25.0347H12.4591V21.1035H16.4073C16.8319 21.1035 17.2676 21.2164 17.5844 21.4982C18.3039 22.1378 18.2329 23.0691 18.2329 23.0691C18.2339 23.0871 18.2349 23.1041 18.2349 23.1221V23.1221Z" fill="white"/>
<path d="M30.1664 23.7432C30.1664 23.7432 30.0315 25.425 27.6272 25.2831C27.6272 25.2831 25.203 25.2421 25.162 22.669H32.9014C32.9014 22.669 33.2012 20.0359 32.2729 18.6379C32.2729 18.6379 31.3006 16.2396 27.7761 16.1656C27.7761 16.1656 23.5352 15.8749 22.2861 20.2377C22.2861 20.2377 21.8204 22.4461 22.2861 24.1079C22.2861 24.1079 23.3853 27.7343 27.6282 27.6933C27.6282 27.6933 32.7945 28.18 32.9494 23.7432H30.1664ZM27.5133 18.3601C27.5133 18.3601 29.7877 18.0773 30.0984 20.6834H25.2359C25.2359 20.6834 25.185 18.7658 27.5133 18.3601V18.3601Z" fill="white"/>
</svg>
