<svg width="255" height="245" viewBox="0 0 255 245" fill="none" xmlns="http://www.w3.org/2000/svg">
<path d="M307.118 66.3607C307.078 65.5332 306.374 64.8949 305.547 64.9349C304.72 64.9749 304.081 65.6781 304.121 66.5056C304.225 68.6572 304.278 70.8224 304.278 73C304.278 75.1777 304.225 77.3429 304.121 79.4945C304.081 80.322 304.72 81.0252 305.547 81.0652C306.374 81.1052 307.078 80.4668 307.118 79.6393C307.224 77.4395 307.278 75.226 307.278 73C307.278 70.7741 307.224 68.5606 307.118 66.3607ZM302.863 53.5817C302.983 54.4013 303.745 54.968 304.565 54.8474C305.385 54.7269 305.951 53.9647 305.831 53.1451C305.181 48.7305 304.319 44.385 303.254 40.1197C303.053 39.3159 302.239 38.8271 301.435 39.0278C300.631 39.2285 300.142 40.0427 300.343 40.8465C301.384 45.0166 302.228 49.2651 302.863 53.5817ZM296.579 28.423C296.858 29.203 297.717 29.6091 298.497 29.3299C299.277 29.0508 299.683 28.1922 299.404 27.4122C297.905 23.2246 296.206 19.1325 294.318 15.1474C293.963 14.3988 293.069 14.0794 292.32 14.4341C291.571 14.7888 291.252 15.6833 291.607 16.4319C293.453 20.3282 295.114 24.329 296.579 28.423ZM285.477 4.98807C285.904 5.69823 286.826 5.92814 287.536 5.50158C288.246 5.07502 288.476 4.15352 288.049 3.44335C285.765 -0.359795 283.299 -4.04132 280.663 -7.58923C280.169 -8.25424 279.23 -8.39288 278.565 -7.89886C277.9 -7.40486 277.761 -6.46529 278.255 -5.80027C280.832 -2.33075 283.244 1.26928 285.477 4.98807ZM270.013 -15.832C270.57 -15.2184 271.518 -15.172 272.132 -15.7286C272.745 -16.2851 272.792 -17.2337 272.235 -17.8474C269.261 -21.1273 266.127 -24.2606 262.847 -27.2352C262.234 -27.7917 261.285 -27.7454 260.729 -27.1317C260.172 -26.5181 260.218 -25.5695 260.832 -25.0129C264.04 -22.104 267.104 -19.0397 270.013 -15.832ZM250.8 -33.2551C251.465 -32.7611 252.405 -32.8997 252.899 -33.5647C253.393 -34.2297 253.254 -35.1693 252.589 -35.6633C249.041 -38.2989 245.36 -40.7648 241.557 -43.0492C240.847 -43.4757 239.925 -43.2458 239.498 -42.5357C239.072 -41.8255 239.302 -40.904 240.012 -40.4774C243.731 -38.2437 247.331 -35.8324 250.8 -33.2551ZM228.568 -46.6067C229.317 -46.252 230.211 -46.5714 230.566 -47.32C230.921 -48.0686 230.601 -48.9631 229.853 -49.3178C225.868 -51.2059 221.775 -52.9051 217.588 -54.4037C216.808 -54.6828 215.949 -54.2767 215.67 -53.4968C215.391 -52.7168 215.797 -51.8582 216.577 -51.5791C220.671 -50.114 224.672 -48.4528 228.568 -46.6067ZM204.154 -55.343C204.957 -55.1423 205.772 -55.6312 205.972 -56.4349C206.173 -57.2387 205.684 -58.0529 204.88 -58.2536C200.615 -59.3188 196.27 -60.1814 191.855 -60.8308C191.035 -60.9514 190.273 -60.3847 190.153 -59.5651C190.032 -58.7455 190.599 -57.9833 191.418 -57.8627C195.735 -57.2278 199.983 -56.3844 204.154 -55.343ZM178.495 -59.1212C179.322 -59.0812 180.025 -59.7195 180.065 -60.547C180.105 -61.3744 179.467 -62.0777 178.639 -62.1177C176.44 -62.224 174.226 -62.2778 172 -62.2778C169.774 -62.2778 167.561 -62.224 165.361 -62.1177C164.533 -62.0777 163.895 -61.3744 163.935 -60.547C163.975 -59.7195 164.678 -59.0812 165.506 -59.1212C167.657 -59.2252 169.822 -59.2778 172 -59.2778C174.178 -59.2778 176.343 -59.2252 178.495 -59.1212ZM152.582 -57.8627C153.401 -57.9833 153.968 -58.7455 153.847 -59.5651C153.727 -60.3847 152.965 -60.9514 152.145 -60.8308C147.73 -60.1814 143.385 -59.3188 139.12 -58.2536C138.316 -58.0529 137.827 -57.2387 138.028 -56.4349C138.228 -55.6312 139.043 -55.1423 139.846 -55.343C144.017 -56.3844 148.265 -57.2278 152.582 -57.8627ZM127.423 -51.5791C128.203 -51.8582 128.609 -52.7168 128.33 -53.4968C128.051 -54.2767 127.192 -54.6828 126.412 -54.4037C122.225 -52.9051 118.132 -51.2059 114.147 -49.3178C113.399 -48.9631 113.079 -48.0686 113.434 -47.32C113.789 -46.5714 114.683 -46.252 115.432 -46.6067C119.328 -48.4528 123.329 -50.114 127.423 -51.5791ZM103.988 -40.4774C104.698 -40.904 104.928 -41.8255 104.502 -42.5357C104.075 -43.2458 103.154 -43.4757 102.443 -43.0492C98.6402 -40.7648 94.9587 -38.2989 91.4108 -35.6633C90.7458 -35.1693 90.6071 -34.2297 91.1011 -33.5647C91.5951 -32.8997 92.5347 -32.7611 93.1997 -33.2551C96.6693 -35.8324 100.269 -38.2438 103.988 -40.4774ZM83.168 -25.0129C83.7816 -25.5695 83.828 -26.5181 83.2714 -27.1317C82.7149 -27.7454 81.7663 -27.7917 81.1526 -27.2352C77.8727 -24.2607 74.7394 -21.1273 71.7648 -17.8474C71.2083 -17.2337 71.2546 -16.2851 71.8683 -15.7286C72.4819 -15.1721 73.4305 -15.2184 73.9871 -15.832C76.896 -19.0397 79.9603 -22.104 83.168 -25.0129ZM65.7449 -5.80029C66.2389 -6.46531 66.1003 -7.40488 65.4353 -7.89889C64.7703 -8.39289 63.8307 -8.25426 63.3367 -7.58924C60.7011 -4.04134 58.2352 -0.35981 55.9508 3.44334C55.5243 4.15351 55.7542 5.07501 56.4643 5.50157C57.1745 5.92813 58.096 5.69822 58.5226 4.98805C60.7563 1.26926 63.1676 -2.33076 65.7449 -5.80029ZM52.3933 16.4319C52.748 15.6833 52.4286 14.7888 51.68 14.4341C50.9314 14.0794 50.0369 14.3987 49.6822 15.1474C47.7941 19.1325 46.0949 23.2246 44.5963 27.4123C44.3172 28.1922 44.7233 29.0508 45.5032 29.3299C46.2832 29.6091 47.1418 29.203 47.4209 28.4231C48.886 24.329 50.5472 20.3282 52.3933 16.4319ZM43.657 40.8465C43.8577 40.0427 43.3688 39.2285 42.5651 39.0278C41.7613 38.8271 40.9471 39.3159 40.7464 40.1197C39.6812 44.385 38.8186 48.7305 38.1692 53.1451C38.0486 53.9647 38.6153 54.7269 39.4349 54.8474C40.2545 54.968 41.0167 54.4013 41.1373 53.5817C41.7722 49.2651 42.6156 45.0166 43.657 40.8465ZM39.8788 66.5056C39.9188 65.6781 39.2805 64.9749 38.453 64.9349C37.6256 64.8949 36.9223 65.5332 36.8823 66.3607C36.776 68.5605 36.7222 70.7741 36.7222 73C36.7222 75.226 36.776 77.4395 36.8823 79.6393C36.9223 80.4668 37.6256 81.1052 38.453 81.0652C39.2805 81.0252 39.9188 80.322 39.8788 79.4945C39.7748 77.3429 39.7222 75.1777 39.7222 73C39.7222 70.8224 39.7748 68.6572 39.8788 66.5056ZM41.1373 92.4184C41.0167 91.5988 40.2545 91.0321 39.4349 91.1526C38.6153 91.2732 38.0486 92.0353 38.1692 92.8549C38.8186 97.2696 39.6812 101.615 40.7464 105.88C40.9471 106.684 41.7613 107.173 42.5651 106.972C43.3688 106.772 43.8577 105.957 43.657 105.154C42.6156 100.983 41.7722 96.7349 41.1373 92.4184ZM47.4209 117.577C47.1418 116.797 46.2832 116.391 45.5032 116.67C44.7233 116.949 44.3172 117.808 44.5963 118.588C46.0949 122.775 47.7941 126.868 49.6822 130.853C50.0369 131.601 50.9314 131.921 51.68 131.566C52.4286 131.211 52.748 130.317 52.3933 129.568C50.5472 125.672 48.886 121.671 47.4209 117.577ZM58.5226 141.012C58.096 140.302 57.1745 140.072 56.4643 140.498C55.7542 140.925 55.5243 141.847 55.9508 142.557C58.2352 146.36 60.7011 150.041 63.3367 153.589C63.8307 154.254 64.7703 154.393 65.4353 153.899C66.1003 153.405 66.2389 152.465 65.7449 151.8C63.1676 148.331 60.7562 144.731 58.5226 141.012ZM73.9871 161.832C73.4305 161.218 72.4819 161.172 71.8683 161.729C71.2546 162.285 71.2083 163.234 71.7648 163.847C74.7393 167.127 77.8727 170.261 81.1526 173.235C81.7663 173.792 82.7149 173.745 83.2714 173.132C83.8279 172.518 83.7816 171.57 83.168 171.013C79.9603 168.104 76.896 165.04 73.9871 161.832ZM93.1997 179.255C92.5347 178.761 91.5951 178.9 91.1011 179.565C90.6071 180.23 90.7458 181.169 91.4108 181.663C94.9587 184.299 98.6402 186.765 102.443 189.049C103.154 189.476 104.075 189.246 104.502 188.536C104.928 187.826 104.698 186.904 103.988 186.477C100.269 184.244 96.6692 181.832 93.1997 179.255ZM115.432 192.607C114.683 192.252 113.789 192.571 113.434 193.32C113.079 194.069 113.399 194.963 114.147 195.318C118.132 197.206 122.225 198.905 126.412 200.404C127.192 200.683 128.051 200.277 128.33 199.497C128.609 198.717 128.203 197.858 127.423 197.579C123.329 196.114 119.328 194.453 115.432 192.607ZM139.846 201.343C139.043 201.142 138.228 201.631 138.028 202.435C137.827 203.239 138.316 204.053 139.12 204.254C143.385 205.319 147.73 206.181 152.145 206.831C152.965 206.951 153.727 206.385 153.847 205.565C153.968 204.745 153.401 203.983 152.582 203.863C148.265 203.228 144.017 202.384 139.846 201.343ZM165.506 205.121C164.678 205.081 163.975 205.72 163.935 206.547C163.895 207.374 164.533 208.078 165.361 208.118C167.561 208.224 169.774 208.278 172 208.278C174.226 208.278 176.439 208.224 178.639 208.118C179.467 208.078 180.105 207.374 180.065 206.547C180.025 205.72 179.322 205.081 178.495 205.121C176.343 205.225 174.178 205.278 172 205.278C169.822 205.278 167.657 205.225 165.506 205.121ZM191.418 203.863C190.599 203.983 190.032 204.745 190.153 205.565C190.273 206.385 191.035 206.951 191.855 206.831C196.27 206.181 200.615 205.319 204.88 204.254C205.684 204.053 206.173 203.239 205.972 202.435C205.772 201.631 204.957 201.142 204.154 201.343C199.983 202.384 195.735 203.228 191.418 203.863ZM216.577 197.579C215.797 197.858 215.391 198.717 215.67 199.497C215.949 200.277 216.808 200.683 217.588 200.404C221.775 198.905 225.868 197.206 229.853 195.318C230.601 194.963 230.921 194.069 230.566 193.32C230.211 192.571 229.317 192.252 228.568 192.607C224.672 194.453 220.671 196.114 216.577 197.579ZM240.012 186.477C239.302 186.904 239.072 187.826 239.498 188.536C239.925 189.246 240.847 189.476 241.557 189.049C245.36 186.765 249.041 184.299 252.589 181.663C253.254 181.169 253.393 180.23 252.899 179.565C252.405 178.9 251.465 178.761 250.8 179.255C247.331 181.832 243.731 184.244 240.012 186.477ZM260.832 171.013C260.218 171.569 260.172 172.518 260.729 173.132C261.285 173.745 262.234 173.792 262.847 173.235C266.127 170.261 269.261 167.127 272.235 163.847C272.792 163.234 272.745 162.285 272.132 161.729C271.518 161.172 270.57 161.218 270.013 161.832C267.104 165.04 264.04 168.104 260.832 171.013ZM278.255 151.8C277.761 152.465 277.9 153.405 278.565 153.899C279.23 154.393 280.169 154.254 280.663 153.589C283.299 150.041 285.765 146.36 288.049 142.557C288.476 141.847 288.246 140.925 287.536 140.498C286.826 140.072 285.904 140.302 285.477 141.012C283.244 144.731 280.832 148.331 278.255 151.8ZM291.607 129.568C291.252 130.317 291.571 131.211 292.32 131.566C293.069 131.921 293.963 131.601 294.318 130.853C296.206 126.868 297.905 122.775 299.404 118.588C299.683 117.808 299.277 116.949 298.497 116.67C297.717 116.391 296.858 116.797 296.579 117.577C295.114 121.671 293.453 125.672 291.607 129.568ZM300.343 105.154C300.142 105.957 300.631 106.772 301.435 106.972C302.239 107.173 303.053 106.684 303.254 105.88C304.319 101.615 305.181 97.2696 305.831 92.8549C305.951 92.0353 305.385 91.2732 304.565 91.1526C303.745 91.032 302.983 91.5987 302.863 92.4184C302.228 96.7349 301.384 100.983 300.343 105.154ZM289.455 66.4018C289.409 65.5746 288.701 64.9412 287.874 64.9869C287.047 65.0327 286.414 65.7403 286.459 66.5674C286.577 68.6965 286.637 70.8412 286.637 73C286.637 75.1588 286.577 77.3035 286.459 79.4326C286.414 80.2598 287.047 80.9674 287.874 81.0132C288.701 81.0589 289.409 80.4254 289.455 79.5983C289.576 77.4141 289.637 75.2141 289.637 73C289.637 70.7859 289.576 68.586 289.455 66.4018ZM285.034 53.7864C285.172 54.6033 285.946 55.1538 286.763 55.0159C287.579 54.8781 288.13 54.1041 287.992 53.2873C287.254 48.912 286.274 44.6188 285.067 40.4216C284.838 39.6254 284.007 39.1657 283.211 39.3947C282.415 39.6236 281.955 40.4547 282.184 41.2508C283.36 45.3401 284.315 49.5232 285.034 53.7864ZM277.939 29.1189C278.256 29.8841 279.134 30.2472 279.899 29.9299C280.664 29.6125 281.027 28.735 280.71 27.9697C279.017 23.8875 277.101 19.9213 274.977 16.0864C274.576 15.3617 273.663 15.0996 272.938 15.501C272.213 15.9023 271.951 16.8152 272.353 17.5399C274.422 21.2768 276.289 25.1414 277.939 29.1189ZM265.502 6.65952C265.982 7.33475 266.919 7.49304 267.594 7.01308C268.269 6.53313 268.427 5.59666 267.947 4.92144C265.395 1.33037 262.646 -2.11116 259.716 -5.38747C259.164 -6.005 258.215 -6.05793 257.598 -5.5057C256.98 -4.95348 256.927 -4.0052 257.48 -3.38768C260.335 -0.19442 263.015 3.15975 265.502 6.65952ZM248.388 -12.4795C249.005 -11.9273 249.954 -11.9802 250.506 -12.5978C251.058 -13.2153 251.005 -14.1636 250.388 -14.7158C247.111 -17.6457 243.67 -20.3948 240.079 -22.9473C239.403 -23.4273 238.467 -23.269 237.987 -22.5938C237.507 -21.9185 237.665 -20.9821 238.341 -20.5021C241.84 -18.0144 245.195 -15.3352 248.388 -12.4795ZM227.46 -27.3526C228.185 -26.9512 229.098 -27.2133 229.499 -27.938C229.9 -28.6627 229.638 -29.5756 228.914 -29.977C225.079 -32.1009 221.113 -34.0169 217.03 -35.7098C216.265 -36.0271 215.388 -35.664 215.07 -34.8988C214.753 -34.1335 215.116 -33.2559 215.881 -32.9386C219.859 -31.2892 223.723 -29.4223 227.46 -27.3526ZM203.749 -37.1837C204.545 -36.9547 205.376 -37.4145 205.605 -38.2106C205.834 -39.0068 205.375 -39.8378 204.578 -40.0668C200.381 -41.274 196.088 -42.2538 191.713 -42.992C190.896 -43.1299 190.122 -42.5794 189.984 -41.7625C189.846 -40.9456 190.397 -40.1717 191.214 -40.0339C195.477 -39.3145 199.66 -38.3598 203.749 -37.1837ZM178.433 -41.4593C179.26 -41.4136 179.967 -42.0471 180.013 -42.8742C180.059 -43.7014 179.425 -44.409 178.598 -44.4548C176.414 -44.5755 174.214 -44.6367 172 -44.6367C169.786 -44.6367 167.586 -44.5755 165.402 -44.4548C164.575 -44.409 163.941 -43.7014 163.987 -42.8742C164.033 -42.0471 164.74 -41.4136 165.567 -41.4593C167.697 -41.5771 169.841 -41.6367 172 -41.6367C174.159 -41.6367 176.304 -41.5771 178.433 -41.4593ZM152.786 -40.0339C153.603 -40.1717 154.154 -40.9456 154.016 -41.7625C153.878 -42.5794 153.104 -43.1299 152.287 -42.992C147.912 -42.2538 143.619 -41.274 139.422 -40.0668C138.625 -39.8378 138.166 -39.0068 138.395 -38.2106C138.624 -37.4145 139.455 -36.9547 140.251 -37.1837C144.34 -38.3598 148.523 -39.3145 152.786 -40.0339ZM128.119 -32.9386C128.884 -33.2559 129.247 -34.1335 128.93 -34.8988C128.613 -35.664 127.735 -36.0271 126.97 -35.7098C122.887 -34.0169 118.921 -32.1009 115.086 -29.977C114.362 -29.5756 114.1 -28.6627 114.501 -27.938C114.902 -27.2133 115.815 -26.9512 116.54 -27.3526C120.277 -29.4223 124.141 -31.2892 128.119 -32.9386ZM105.66 -20.5021C106.335 -20.9821 106.493 -21.9185 106.013 -22.5938C105.533 -23.269 104.597 -23.4273 103.921 -22.9473C100.33 -20.3948 96.8888 -17.6457 93.6125 -14.7158C92.995 -14.1636 92.9421 -13.2153 93.4943 -12.5978C94.0465 -11.9803 94.9948 -11.9273 95.6123 -12.4796C98.8056 -15.3352 102.16 -18.0145 105.66 -20.5021ZM86.5205 -3.3877C87.0727 -4.00523 87.0198 -4.95349 86.4022 -5.50572C85.7847 -6.05795 84.8364 -6.00502 84.2842 -5.3875C81.3543 -2.11118 78.6052 1.33035 76.0527 4.92142C75.5727 5.59665 75.731 6.53311 76.4062 7.01307C77.0815 7.49303 78.0179 7.33473 78.4979 6.6595C80.9856 3.15974 83.6648 -0.194443 86.5205 -3.3877ZM71.6474 17.5399C72.0488 16.8152 71.7867 15.9023 71.062 15.5009C70.3373 15.0996 69.4244 15.3617 69.023 16.0864C66.8991 19.9213 64.9831 23.8874 63.2902 27.9697C62.9729 28.7349 63.336 29.6125 64.1012 29.9299C64.8665 30.2472 65.7441 29.8841 66.0614 29.1189C67.7108 25.1414 69.5777 21.2768 71.6474 17.5399ZM61.8163 41.2508C62.0453 40.4547 61.5855 39.6236 60.7894 39.3946C59.9932 39.1656 59.1622 39.6254 58.9332 40.4216C57.726 44.6187 56.7462 48.912 56.008 53.2872C55.8701 54.1041 56.4206 54.8781 57.2375 55.0159C58.0544 55.1537 58.8283 54.6033 58.9661 53.7864C59.6855 49.5232 60.6402 45.3401 61.8163 41.2508ZM57.5407 66.5674C57.5864 65.7403 56.9529 65.0326 56.1258 64.9869C55.2986 64.9412 54.591 65.5746 54.5452 66.4018C54.4245 68.586 54.3633 70.7859 54.3633 73C54.3633 75.2141 54.4245 77.4141 54.5452 79.5983C54.591 80.4254 55.2986 81.0589 56.1258 81.0132C56.9529 80.9674 57.5864 80.2598 57.5407 79.4326C57.4229 77.3035 57.3633 75.1588 57.3633 73C57.3633 70.8412 57.4229 68.6965 57.5407 66.5674ZM58.9661 92.2137C58.8283 91.3968 58.0544 90.8463 57.2375 90.9841C56.4206 91.122 55.8701 91.8959 56.008 92.7128C56.7462 97.088 57.726 101.381 58.9332 105.578C59.1622 106.375 59.9932 106.834 60.7894 106.605C61.5855 106.376 62.0453 105.545 61.8163 104.749C60.6402 100.66 59.6855 96.4769 58.9661 92.2137ZM66.0614 116.881C65.7441 116.116 64.8665 115.753 64.1012 116.07C63.336 116.388 62.9729 117.265 63.2902 118.03C64.9831 122.113 66.8991 126.079 69.023 129.914C69.4244 130.638 70.3373 130.9 71.062 130.499C71.7867 130.098 72.0488 129.185 71.6474 128.46C69.5777 124.723 67.7108 120.859 66.0614 116.881ZM78.4979 139.341C78.0179 138.665 77.0815 138.507 76.4062 138.987C75.731 139.467 75.5727 140.403 76.0527 141.079C78.6052 144.67 81.3543 148.111 84.2842 151.388C84.8364 152.005 85.7847 152.058 86.4022 151.506C87.0197 150.954 87.0727 150.005 86.5204 149.388C83.6648 146.194 80.9855 142.84 78.4979 139.341ZM95.6123 158.48C94.9948 157.927 94.0465 157.98 93.4943 158.598C92.942 159.215 92.995 160.164 93.6125 160.716C96.8888 163.646 100.33 166.395 103.921 168.947C104.597 169.427 105.533 169.269 106.013 168.594C106.493 167.919 106.335 166.982 105.66 166.502C102.16 164.014 98.8056 161.335 95.6123 158.48ZM116.54 173.353C115.815 172.951 114.902 173.213 114.501 173.938C114.1 174.663 114.362 175.576 115.086 175.977C118.921 178.101 122.887 180.017 126.97 181.71C127.735 182.027 128.613 181.664 128.93 180.899C129.247 180.134 128.884 179.256 128.119 178.939C124.141 177.289 120.277 175.422 116.54 173.353ZM140.251 183.184C139.455 182.955 138.624 183.415 138.395 184.211C138.166 185.007 138.625 185.838 139.422 186.067C143.619 187.274 147.912 188.254 152.287 188.992C153.104 189.13 153.878 188.579 154.016 187.763C154.154 186.946 153.603 186.172 152.786 186.034C148.523 185.315 144.34 184.36 140.251 183.184ZM165.567 187.459C164.74 187.414 164.033 188.047 163.987 188.874C163.941 189.701 164.575 190.409 165.402 190.455C167.586 190.576 169.786 190.637 172 190.637C174.214 190.637 176.414 190.576 178.598 190.455C179.425 190.409 180.059 189.701 180.013 188.874C179.967 188.047 179.26 187.414 178.433 187.459C176.304 187.577 174.159 187.637 172 187.637C169.841 187.637 167.697 187.577 165.567 187.459ZM191.214 186.034C190.397 186.172 189.846 186.946 189.984 187.763C190.122 188.579 190.896 189.13 191.713 188.992C196.088 188.254 200.381 187.274 204.578 186.067C205.375 185.838 205.834 185.007 205.605 184.211C205.376 183.415 204.545 182.955 203.749 183.184C199.66 184.36 195.477 185.315 191.214 186.034ZM215.881 178.939C215.116 179.256 214.753 180.134 215.07 180.899C215.388 181.664 216.265 182.027 217.03 181.71C221.113 180.017 225.079 178.101 228.914 175.977C229.638 175.576 229.9 174.663 229.499 173.938C229.098 173.213 228.185 172.951 227.46 173.353C223.723 175.422 219.859 177.289 215.881 178.939ZM238.341 166.502C237.665 166.982 237.507 167.919 237.987 168.594C238.467 169.269 239.403 169.427 240.079 168.947C243.67 166.395 247.111 163.646 250.388 160.716C251.005 160.164 251.058 159.215 250.506 158.598C249.954 157.98 249.005 157.927 248.388 158.48C245.194 161.335 241.84 164.015 238.341 166.502ZM257.48 149.388C256.927 150.005 256.98 150.954 257.598 151.506C258.215 152.058 259.164 152.005 259.716 151.388C262.646 148.111 265.395 144.67 267.947 141.079C268.427 140.403 268.269 139.467 267.594 138.987C266.919 138.507 265.982 138.665 265.502 139.341C263.014 142.84 260.335 146.195 257.48 149.388ZM272.353 128.46C271.951 129.185 272.213 130.098 272.938 130.499C273.663 130.9 274.576 130.638 274.977 129.914C277.101 126.079 279.017 122.113 280.71 118.03C281.027 117.265 280.664 116.388 279.899 116.07C279.134 115.753 278.256 116.116 277.939 116.881C276.289 120.859 274.422 124.723 272.353 128.46ZM282.184 104.749C281.955 105.545 282.415 106.376 283.211 106.605C284.007 106.834 284.838 106.375 285.067 105.578C286.274 101.381 287.254 97.088 287.992 92.7128C288.13 91.8959 287.579 91.122 286.763 90.9841C285.946 90.8463 285.172 91.3968 285.034 92.2137C284.315 96.4769 283.36 100.66 282.184 104.749ZM342.991 54.2617C343.366 57.7243 343.639 61.2176 343.805 64.7387C342.98 64.7741 342.339 65.4697 342.371 66.2953C342.457 68.5195 342.5 70.7546 342.5 73C342.5 75.2454 342.457 77.4805 342.371 79.7047C342.339 80.5304 342.98 81.2259 343.805 81.2613C343.639 84.7824 343.366 88.2757 342.991 91.7383C342.171 91.6458 341.429 92.2337 341.333 93.0543C340.81 97.5169 340.115 101.927 339.255 106.277C339.094 107.087 339.62 107.874 340.429 108.038C339.715 111.485 338.899 114.893 337.983 118.261C337.187 118.041 336.363 118.505 336.139 119.3C334.924 123.615 333.544 127.861 332.005 132.029C331.719 132.804 332.114 133.664 332.887 133.954C331.642 137.239 330.298 140.477 328.861 143.663C328.11 143.321 327.222 143.649 326.876 144.399C325 148.463 322.968 152.44 320.789 156.323C320.384 157.043 320.639 157.955 321.357 158.362C319.613 161.406 317.779 164.392 315.858 167.316C315.17 166.86 314.242 167.045 313.783 167.731C311.296 171.446 308.667 175.058 305.904 178.558C305.392 179.207 305.501 180.147 306.146 180.661C303.951 183.393 301.674 186.057 299.318 188.648C298.71 188.09 297.764 188.129 297.203 188.735C294.172 192.013 291.013 195.172 287.735 198.203C287.129 198.764 287.09 199.71 287.648 200.318C285.057 202.674 282.393 204.951 279.661 207.146C279.147 206.501 278.207 206.392 277.558 206.904C274.057 209.667 270.446 212.296 266.731 214.783C266.045 215.242 265.86 216.17 266.316 216.858C263.392 218.779 260.406 220.613 257.362 222.357C256.955 221.639 256.043 221.384 255.323 221.789C251.44 223.968 247.463 226 243.399 227.876C242.649 228.222 242.321 229.11 242.663 229.861C239.477 231.298 236.239 232.642 232.954 233.887C232.664 233.114 231.804 232.719 231.029 233.005C226.861 234.544 222.615 235.924 218.3 237.139C217.505 237.363 217.041 238.187 217.261 238.983C213.893 239.899 210.485 240.715 207.038 241.429C206.874 240.62 206.087 240.094 205.277 240.255C200.927 241.115 196.517 241.81 192.054 242.333C191.234 242.429 190.646 243.171 190.738 243.991C187.276 244.366 183.782 244.639 180.261 244.805C180.226 243.98 179.53 243.339 178.705 243.371C176.481 243.457 174.245 243.5 172 243.5C169.755 243.5 167.519 243.457 165.295 243.371C164.47 243.339 163.774 243.98 163.739 244.805C160.218 244.639 156.724 244.366 153.262 243.991C153.354 243.171 152.766 242.429 151.946 242.333C147.483 241.81 143.073 241.115 138.723 240.255C137.913 240.094 137.126 240.62 136.962 241.429C133.515 240.715 130.107 239.899 126.739 238.983C126.959 238.187 126.495 237.363 125.7 237.139C121.385 235.924 117.139 234.544 112.971 233.005C112.196 232.719 111.336 233.114 111.046 233.887C107.761 232.642 104.523 231.298 101.337 229.861C101.679 229.11 101.351 228.222 100.601 227.876C96.5374 226 92.5603 223.968 88.6771 221.789C87.9566 221.384 87.0452 221.639 86.6382 222.357C83.5938 220.613 80.608 218.779 77.6842 216.858C78.1404 216.17 77.9552 215.242 77.2686 214.783C73.554 212.296 69.9425 209.667 66.4419 206.904C65.7934 206.392 64.8534 206.501 64.3392 207.146C61.607 204.951 58.9433 202.674 56.3519 200.318C56.9098 199.71 56.8713 198.764 56.2647 198.203C52.9868 195.172 49.8282 192.013 46.7966 188.735C46.2356 188.129 45.2901 188.09 44.6817 188.648C42.3264 186.057 40.0491 183.393 37.8536 180.661C38.4993 180.147 38.6084 179.207 38.0964 178.558C35.3331 175.057 32.7041 171.446 30.2172 167.731C29.7575 167.045 28.8296 166.86 28.1417 167.316C26.2209 164.392 24.3869 161.406 22.6432 158.362C23.3613 157.955 23.6158 157.043 23.2115 156.323C21.0321 152.44 19.0005 148.463 17.124 144.399C16.7776 143.649 15.8902 143.321 15.1393 143.663C13.7018 140.477 12.3584 137.239 11.1129 133.954C11.886 133.664 12.2806 132.804 11.9946 132.029C10.4561 127.861 9.07592 123.615 7.8613 119.3C7.63741 118.505 6.81278 118.041 6.0173 118.261C5.10112 114.893 4.2847 111.485 3.57141 108.038C4.38043 107.874 4.90568 107.087 4.74534 106.277C3.88475 101.927 3.18963 97.5169 2.66681 93.0543C2.57067 92.2337 1.82918 91.6458 1.00895 91.7383C0.633801 88.2757 0.361418 84.7824 0.19491 81.2613C1.01962 81.2259 1.66131 80.5303 1.62939 79.7047C1.5434 77.4805 1.5 75.2454 1.5 73C1.5 70.7546 1.5434 68.5195 1.62939 66.2953C1.66131 65.4696 1.01962 64.7741 0.194911 64.7387C0.361419 61.2176 0.633802 57.7243 1.00895 54.2617C1.82918 54.3542 2.57067 53.7663 2.66681 52.9457C3.18963 48.4831 3.88475 44.0734 4.74534 39.7232C4.90569 38.9127 4.38043 38.1256 3.57141 37.9619C4.2847 34.5154 5.10112 31.1065 6.01731 27.7387C6.81278 27.959 7.63741 27.4949 7.8613 26.6996C9.07593 22.3848 10.4561 18.1395 11.9946 13.9707C12.2806 13.1956 11.886 12.3355 11.1129 12.0464C12.3584 8.76053 13.7018 5.52272 15.1393 2.33655C15.8902 2.67937 16.7777 2.35097 17.124 1.60085C19.0005 -2.46259 21.0321 -6.43969 23.2115 -10.3229C23.6158 -11.0434 23.3613 -11.9548 22.6432 -12.3618C24.3869 -15.4061 26.2209 -18.392 28.1417 -21.3158C28.8296 -20.8596 29.7576 -21.0448 30.2172 -21.7314C32.7041 -25.446 35.3331 -29.0575 38.0965 -32.5581C38.6084 -33.2066 38.4993 -34.1466 37.8536 -34.6608C40.0492 -37.393 42.3264 -40.0567 44.6818 -42.6481C45.2901 -42.0902 46.2357 -42.1287 46.7967 -42.7353C49.8282 -46.0132 52.9868 -49.1718 56.2647 -52.2034C56.8713 -52.7644 56.9098 -53.7099 56.3519 -54.3183C58.9434 -56.6736 61.607 -58.9509 64.3392 -61.1464C64.8534 -60.5007 65.7934 -60.3916 66.4419 -60.9036C69.9425 -63.6669 73.554 -66.2959 77.2686 -68.7828C77.9552 -69.2425 78.1405 -70.1704 77.6842 -70.8583C80.608 -72.7791 83.5939 -74.6131 86.6382 -76.3568C87.0452 -75.6387 87.9566 -75.3842 88.6772 -75.7885C92.5603 -77.9679 96.5374 -79.9995 100.601 -81.876C101.351 -82.2224 101.679 -83.1098 101.337 -83.8607C104.523 -85.2982 107.761 -86.6416 111.046 -87.8871C111.336 -87.114 112.196 -86.7194 112.971 -87.0054C117.139 -88.5439 121.385 -89.9241 125.7 -91.1387C126.495 -91.3626 126.959 -92.1872 126.739 -92.9827C130.107 -93.8989 133.515 -94.7153 136.962 -95.4286C137.126 -94.6196 137.913 -94.0943 138.723 -94.2547C143.073 -95.1152 147.483 -95.8104 151.946 -96.3332C152.766 -96.4293 153.354 -97.1708 153.262 -97.9911C156.724 -98.3662 160.218 -98.6386 163.739 -98.8051C163.774 -97.9804 164.47 -97.3387 165.295 -97.3706C167.519 -97.4566 169.755 -97.5 172 -97.5C174.245 -97.5 176.481 -97.4566 178.705 -97.3706C179.53 -97.3387 180.226 -97.9804 180.261 -98.8051C183.782 -98.6386 187.276 -98.3662 190.738 -97.9911C190.646 -97.1708 191.234 -96.4293 192.054 -96.3332C196.517 -95.8104 200.927 -95.1152 205.277 -94.2547C206.087 -94.0943 206.874 -94.6196 207.038 -95.4286C210.485 -94.7153 213.893 -93.8989 217.261 -92.9827C217.041 -92.1872 217.505 -91.3626 218.3 -91.1387C222.615 -89.9241 226.861 -88.5439 231.029 -87.0054C231.804 -86.7194 232.664 -87.114 232.954 -87.8871C236.239 -86.6416 239.477 -85.2982 242.663 -83.8607C242.321 -83.1098 242.649 -82.2223 243.399 -81.876C247.463 -79.9995 251.44 -77.9679 255.323 -75.7885C256.043 -75.3842 256.955 -75.6387 257.362 -76.3568C260.406 -74.6131 263.392 -72.7791 266.316 -70.8583C265.86 -70.1704 266.045 -69.2424 266.731 -68.7828C270.446 -66.2959 274.058 -63.6669 277.558 -60.9035C278.207 -60.3916 279.147 -60.5007 279.661 -61.1464C282.393 -58.9508 285.057 -56.6736 287.648 -54.3182C287.09 -53.7099 287.129 -52.7643 287.735 -52.2033C291.013 -49.1718 294.172 -46.0132 297.203 -42.7353C297.764 -42.1287 298.71 -42.0902 299.318 -42.6481C301.674 -40.0566 303.951 -37.393 306.146 -34.6608C305.501 -34.1466 305.392 -33.2066 305.904 -32.5581C308.667 -29.0575 311.296 -25.446 313.783 -21.7314C314.242 -21.0448 315.17 -20.8595 315.858 -21.3158C317.779 -18.392 319.613 -15.4061 321.357 -12.3618C320.639 -11.9548 320.384 -11.0434 320.789 -10.3228C322.968 -6.43967 325 -2.46256 326.876 1.60087C327.222 2.35099 328.11 2.67939 328.861 2.33656C330.298 5.52273 331.642 8.76054 332.887 12.0464C332.114 12.3355 331.719 13.1956 332.005 13.9707C333.544 18.1395 334.924 22.3848 336.139 26.6996C336.363 27.4949 337.187 27.959 337.983 27.7388C338.899 31.1065 339.715 34.5154 340.429 37.9619C339.62 38.1256 339.094 38.9127 339.255 39.7232C340.115 44.0734 340.81 48.4831 341.333 52.9457C341.429 53.7663 342.171 54.3543 342.991 54.2617Z" stroke="#D9D9D9" stroke-width="3" stroke-linecap="round" stroke-dasharray="14 14"/>
</svg>
