<svg width="42" height="42" viewBox="0 0 42 42" fill="none" xmlns="http://www.w3.org/2000/svg">
<path d="M33.6232 9.83465C33.6232 10.1477 33.5614 10.4577 33.4417 10.747C33.322 11.0362 33.1462 11.299 32.925 11.5204C32.7036 11.7418 32.4408 11.9174 32.1514 12.0372C31.8623 12.157 31.5523 12.2187 31.2392 12.2187C30.9262 12.2187 30.6162 12.157 30.3268 12.0372C30.0377 11.9174 29.7748 11.7418 29.5534 11.5204C29.332 11.299 29.1564 11.0362 29.0367 10.747C28.9168 10.4577 28.8552 10.1477 28.8552 9.83465C28.8552 9.20238 29.1062 8.596 29.5534 8.14891C30.0006 7.70182 30.6069 7.45065 31.2392 7.45065C31.8715 7.45065 32.4778 7.70182 32.925 8.14891C33.372 8.596 33.6232 9.20238 33.6232 9.83465ZM41.1923 20.5961V20.627L41.0559 29.2671C41.0211 32.3831 39.7678 35.3618 37.5646 37.5653C35.3615 39.7691 32.3831 41.0229 29.2672 41.0584L20.5961 41.1923H20.5652L11.9252 41.0558C8.80915 41.0211 5.83054 39.7678 3.62683 37.5648C1.4231 35.3615 0.169339 32.3831 0.133875 29.2671L0 20.5961V20.5652L0.136449 11.9252C0.171231 8.80915 1.42433 5.83054 3.62758 3.62683C5.83082 1.42309 8.80915 0.169331 11.9252 0.13388L20.5961 0H20.627L29.2672 0.136454C32.3831 0.171236 35.3618 1.42433 37.5653 3.62757C39.7691 5.83082 41.0229 8.80915 41.0584 11.9252L41.1923 20.5961ZM37.3563 20.5961L37.2224 11.9844C37.1982 9.86627 36.346 7.84172 34.8484 6.34389C33.3506 4.84609 31.326 3.99398 29.2079 3.96991L20.5961 3.83603L11.9844 3.96991C9.86627 3.99398 7.84173 4.84609 6.3439 6.34389C4.8461 7.84172 3.99398 9.86627 3.96991 11.9844L3.83604 20.5961L3.96991 29.2079C3.99398 31.326 4.8461 33.3506 6.3439 34.8484C7.84173 36.3463 9.86627 37.1982 11.9844 37.2224L20.5961 37.3563L29.2079 37.2224C31.326 37.1982 33.3506 36.3463 34.8484 34.8484C36.346 33.3506 37.1982 31.326 37.2224 29.2079L37.3563 20.5961ZM31.1723 20.5961C31.1723 23.4011 30.058 26.0912 28.0746 28.0746C26.0912 30.058 23.4011 31.1723 20.5961 31.1723C17.7912 31.1723 15.1011 30.058 13.1177 28.0746C11.1343 26.0912 10.02 23.4011 10.02 20.5961C10.02 17.7912 11.1343 15.1011 13.1177 13.1177C15.1011 11.1343 17.7912 10.02 20.5961 10.02C23.4011 10.02 26.0912 11.1343 28.0746 13.1177C30.058 15.1011 31.1723 17.7912 31.1723 20.5961ZM27.3363 20.5961C27.3363 18.8085 26.6262 17.0942 25.3621 15.8302C24.0981 14.5662 22.3837 13.856 20.5961 13.856C18.8085 13.856 17.0942 14.5662 15.8302 15.8302C14.5662 17.0942 13.8561 18.8085 13.8561 20.5961C13.8561 22.3837 14.5662 24.098 15.8302 25.3621C17.0942 26.6262 18.8085 27.3362 20.5961 27.3362C22.3837 27.3362 24.0981 26.6262 25.3621 25.3621C26.6262 24.098 27.3363 22.3837 27.3363 20.5961Z" fill="#141414"/>
</svg>
