<svg width="42" height="42" viewBox="0 0 42 42" fill="none" xmlns="http://www.w3.org/2000/svg">
<g clip-path="url(#clip0_697_173)">
<path d="M37.0731 0C38.1656 0 39.2133 0.433989 39.9858 1.20649C40.7583 1.979 41.1923 3.02674 41.1923 4.11923V37.0731C41.1923 38.1656 40.7583 39.2133 39.9858 39.9858C39.2133 40.7583 38.1656 41.1923 37.0731 41.1923H4.11923C3.02674 41.1923 1.979 40.7583 1.20649 39.9858C0.433989 39.2133 0 38.1656 0 37.0731L0 4.11923C0 3.02674 0.433989 1.979 1.20649 1.20649C1.979 0.433989 3.02674 0 4.11923 0L37.0731 0V0ZM27.7705 14.9528C26.7021 14.9133 25.6407 15.1413 24.6828 15.6161C23.7248 16.0908 22.9006 16.7974 22.285 17.6715L21.9933 18.128H21.9109V15.4402H16.0513V35.0993H22.1546V25.3745C22.1546 22.8102 22.642 20.3284 25.8207 20.3284C28.9548 20.3284 28.9959 23.2599 28.9959 25.5392V35.0993H35.0993V24.3172L35.0821 23.2016C34.9105 18.4644 33.5168 14.9528 27.7705 14.9528ZM12.217 15.4402H6.10676V35.0993H12.217V15.4402ZM9.16185 5.67081C8.22231 5.67081 7.32126 6.04404 6.6569 6.70839C5.99255 7.37275 5.61932 8.27381 5.61932 9.21334C5.61932 10.1529 5.99255 11.0539 6.6569 11.7183C7.32126 12.3827 8.22231 12.7559 9.16185 12.7559C10.1014 12.7559 11.0025 12.3827 11.6668 11.7183C12.3312 11.0539 12.7044 10.1529 12.7044 9.21334C12.7044 8.27381 12.3312 7.37275 11.6668 6.70839C11.0025 6.04404 10.1014 5.67081 9.16185 5.67081Z" fill="#141414"/>
</g>
<defs>
<clipPath id="clip0_697_173">
<rect width="41.1923" height="41.1923" fill="white"/>
</clipPath>
</defs>
</svg>
