<svg width="60" height="105" viewBox="0 0 60 105" fill="none" xmlns="http://www.w3.org/2000/svg">
<path d="M57.2037 85.7531V102.937H60.0117V104.931H45.4171V102.937H48.2251V85.7531H40.8728V93.7389C40.8728 96.8992 39.7403 99.5665 37.4751 101.741C35.21 103.915 32.2679 105.002 28.6486 105C25.376 105.047 22.209 103.862 19.7964 101.688C17.3004 99.4768 16.0524 96.8271 16.0524 93.7389V91.7471H24.804V98.5874C24.804 101.535 26.0824 103.008 28.6393 103.008C30.9418 103.008 32.0939 101.535 32.0955 98.5874V86.3971C32.0942 86.3952 32.0924 86.3937 32.0904 86.3926C32.0884 86.3915 32.0861 86.391 32.0838 86.391C32.0815 86.391 32.0792 86.3915 32.0771 86.3926C32.0751 86.3937 32.0734 86.3952 32.0721 86.3971C30.4294 87.7772 28.2805 88.471 25.6254 88.4787C19.2301 88.4787 15.9144 85.2103 15.9144 78.4205V75.3292L15.8395 1.99185H8.65801V23.1662H0V0H40.95V23.1662H32.0112V1.99185H24.8274V75.2671H24.804V82.0477C24.804 84.8507 25.896 86.2522 28.08 86.2522C29.47 86.2522 30.8046 85.6228 32.0838 84.3639L32.1118 31.727L40.8518 31.6189V83.4369H48.1947V31.4556H57.1826V83.4369H59.9906V85.7531H57.2037Z" fill="black"/>
</svg>
